<svg xmlns="http://www.w3.org/2000/svg" width="48" height="48" viewBox="0 0 24 24" fill="none" stroke="#FFC107" stroke-width="2" stroke-linecap="round" stroke-linejoin="round">
  <path d="M10 2v7.31"/>
  <path d="M14 9.3V2"/>
  <path d="M8.17 9.37a6 6 0 0 0-5.77 8.16A6 6 0 0 0 14 19.71"/>
  <path d="M21.6 17.53a6 6 0 0 0-5.77-8.16 5.88 5.88 0 0 0-1.77.27"/>
  <path d="M12.63 16.24c.98-.07 1.97.39 2.54 1.19.57.8.68 1.84.28 2.74"/>
  <path d="M15.5 14a2.12 2.12 0 0 1 .15 2.94 2.13 2.13 0 0 1-2.39.46"/>
  <path d="M10 2C5.58 2 2 5.58 2 10"/>
</svg> 